<svg xmlns="http://www.w3.org/2000/svg" width="2048" height="2048" style="shape-rendering:geometricPrecision;text-rendering:geometricPrecision;image-rendering:optimizeQuality;fill-rule:evenodd;clip-rule:evenodd"><path style="opacity:.999" fill="#f7931a" d="M977.5-.5h90c277.3 16.262 511.8 123.929 703.5 323 170.04 185.779 262.21 405.112 276.5 658v85c-13.78 252.35-105.28 471.35-274.5 657-167.48 175.5-371.98 281-613.5 316.5-30.39 3.89-60.72 6.72-91 8.5h-89c-277.306-16.26-511.806-123.93-703.5-323-170.286-185.68-262.453-405.01-276.5-658v-85c13.78-252.35 105.279-471.35 274.5-657C441.476 149.001 645.976 43.5 887.5 8a1371.78 1371.78 0 0 1 90-8.5z"/><path style="opacity:1" fill="#fffefe" d="M981.5 356.5c37.55 9.053 74.88 18.72 112 29a17813.613 17813.613 0 0 0-45 180 3813.984 3813.984 0 0 1 84 19.5c2.27.758 4.44.591 6.5-.5 15.08-59.144 29.91-118.31 44.5-177.5 37.25 9.144 74.58 18.311 112 27.5a18663.308 18663.308 0 0 1-46 184c43.3 15.038 84.63 34.205 124 57.5 97.27 61.799 126.44 147.299 87.5 256.5-16.29 44.294-45.79 76.46-88.5 96.5a355.553 355.553 0 0 1-40 14c35.47 17.16 65.31 41.33 89.5 72.5 26.34 38.72 36.34 81.38 30 128-7.2 51.95-24.87 99.95-53 144-38.71 53.46-91.21 83.96-157.5 91.5a590.181 590.181 0 0 1-105 2c-33.13-3.6-66.13-8.1-99-13.5-14.53 61.78-29.53 123.45-45 185-37.626-9.16-75.293-18.16-113-27 15.018-61.4 30.351-122.74 46-184-30.015-7.67-60.015-15.34-90-23a18468.858 18468.858 0 0 0-45 184 6826.669 6826.669 0 0 1-112-27.5 3.595 3.595 0 0 1-1-1.5 9454.983 9454.983 0 0 0 46-186c-74.84-19.17-149.84-37.84-225-56 17.647-43.1 35.98-85.93 55-128.5a2521.5 2521.5 0 0 1 68 17c8.257 1.93 16.59 3.43 25 4.5 20.431-.59 33.931-10.59 40.5-30a91533.983 91533.983 0 0 0 125-501c3.64-26.885-6.194-47.052-29.5-60.5a174.93 174.93 0 0 0-28-10 2430.9 2430.9 0 0 0-74.5-18.5 2527.925 2527.925 0 0 1 28.5-118c1.574-1.131 3.241-1.298 5-.5a13452.974 13452.974 0 0 0 222 54.5 18530.4 18530.4 0 0 1 46-184z"/><path style="opacity:1" fill="#f7931a" d="M1017.5 698.5a852.956 852.956 0 0 1 136 36.5c28.36 10.585 53.53 26.085 75.5 46.5 29.98 33.269 35.98 70.602 18 112-12.86 26.85-33.69 44.35-62.5 52.5-29.36 6.455-59.03 8.122-89 5a894.627 894.627 0 0 1-132-28.5l-1-2a26987.276 26987.276 0 0 0 55-222z"/><path style="opacity:1" fill="#fcd09b" d="M762.5 902.5c2.226-1.059 4.559-.892 7 .5a16.597 16.597 0 0 1-7-.5z"/><path style="opacity:1" fill="#f7931a" d="M933.5 1035.5c54.616 10.9 108.28 25.4 161 43.5 30.44 11.21 58.44 26.55 84 46 44.97 38.03 55.13 83.87 30.5 137.5-13.16 23.48-32.66 39.31-58.5 47.5-24.08 7.43-48.75 10.59-74 9.5a456.81 456.81 0 0 1-81-7.5 1514.623 1514.623 0 0 1-123-29.5 66684 66684 0 0 0 61-247z"/></svg>