<svg xmlns="http://www.w3.org/2000/svg" width="2000" height="2000" style="shape-rendering:geometricPrecision;text-rendering:geometricPrecision;image-rendering:optimizeQuality;fill-rule:evenodd;clip-rule:evenodd"><path style="opacity:.999" fill="#50af95" d="M1999.5 905.5v11c-2.39 3.897-5.39 7.397-9 10.5a651917.633 651917.633 0 0 0-980 939c-7.33 4.67-14.667 4.67-22 0a651082.58 651082.58 0 0 0-982-941c-2.71-2.628-5.044-5.461-7-8.5v-11a877423.58 877423.58 0 0 0 356.5-749 174.187 174.187 0 0 1 13.5-24.5l4-2 626-.5 626 .5c1.33.667 2.67 1.333 4 2 4.8 7.097 8.97 14.597 12.5 22.5 119.21 250.424 238.38 500.758 357.5 751z"/><path style="opacity:1" fill="#fefefe" d="M525.5 366.5h949v232a30262 30262 0 0 0-348 1v152c89.6 4.009 178.6 13.509 267 28.5a926.203 926.203 0 0 1 142 37c24.78 8.718 47.45 21.051 68 37 25.05 24.958 23.72 48.625-4 71-17.62 12.649-36.62 22.983-57 31a905.237 905.237 0 0 1-140 38 2223.317 2223.317 0 0 1-276.5 30.5c-.5 162.67-.67 325.33-.5 488h-251c.333-162.83 0-325.5-1-488a2083.986 2083.986 0 0 1-273-29.5 859.872 859.872 0 0 1-142-38c-23.322-8.698-44.655-20.698-64-36-22.977-22.667-22.643-45 1-67 19.669-15.341 41.336-27.341 65-36a854.488 854.488 0 0 1 139-37 2068.016 2068.016 0 0 1 274-29.5v-152c-115.832-1-231.832-1.333-348-1v-232z"/><path style="opacity:1" fill="#a4d5c8" d="M525.5 366.5v232c116.168-.333 232.168 0 348 1h-349a13571.71 13571.71 0 0 1 1-233zM1474.5 366.5c1 77.498 1.33 155.165 1 233h-349a30262 30262 0 0 1 348-1v-232z"/><path style="opacity:1" fill="#50af95" d="M868.5 769.5h5a7227.48 7227.48 0 0 0 1 170 1982.404 1982.404 0 0 0 251 0v-170a1948.212 1948.212 0 0 1 270 28.5c41.25 7.047 81.25 18.38 120 34 16.22 6.179 30.05 15.679 41.5 28.5 7.28 10.266 7.28 20.599 0 31-7.13 8.634-15.63 15.467-25.5 20.5a452.048 452.048 0 0 1-90 32 1702.817 1702.817 0 0 1-234 34c-157.81 11.213-315.479 9.546-473-5a1335.982 1335.982 0 0 1-173-28 503.107 503.107 0 0 1-76-24c-13.982-5.68-26.648-13.347-38-23-13.618-13.116-14.451-26.949-2.5-41.5 12.572-11.208 26.739-20.042 42.5-26.5a680.843 680.843 0 0 1 120-33 1968.596 1968.596 0 0 1 261-27.5z"/><path style="opacity:1" fill="#addace" d="M868.5 769.5c1.765-.961 3.765-1.295 6-1v171a7227.48 7227.48 0 0 1-1-170h-5z"/><path style="opacity:1" fill="#a3d4c7" d="M873.5 1024.5c1 162.5 1.333 325.17 1 488h251c-83.83 1-167.832 1.33-252 1v-489z"/></svg>