<svg xmlns="http://www.w3.org/2000/svg" viewBox="0 0 209 341" id="iphonex"><g data-name="Layer 2"><g data-name="Layer 1"><path d="M187.201 43H154V21.799A21.824 21.824 0 0 0 132.201 0H21.8A21.824 21.824 0 0 0 0 21.799V276.2A21.824 21.824 0 0 0 21.799 298H55v21.201A21.823 21.823 0 0 0 76.799 341H187.2a21.823 21.823 0 0 0 21.8-21.799V64.8A21.823 21.823 0 0 0 187.201 43zM55 64.799V288H21.799A11.812 11.812 0 0 1 10 276.201V21.8A11.812 11.812 0 0 1 21.799 10H132.2A11.812 11.812 0 0 1 144 21.799V43H76.799A21.823 21.823 0 0 0 55 64.799zM199 319.2a11.799 11.799 0 0 1-11.799 11.8H76.8A11.799 11.799 0 0 1 65 319.201V64.8A11.799 11.799 0 0 1 76.799 53h17.439a4.701 4.701 0 0 1 4.6 3.733l.975 4.629A7.101 7.101 0 0 0 106.762 67h51.476a7.101 7.101 0 0 0 6.949-5.638l.975-4.63a4.701 4.701 0 0 1 4.6-3.732h16.44A11.799 11.799 0 0 1 199 64.799z"></path><circle cx="189" cy="63" r="3"></circle><circle cx="175" cy="63" r="3"></circle><circle cx="91" cy="63" r="3"></circle><circle cx="77" cy="63" r="3"></circle><circle cx="171" cy="305" r="12"></circle><circle cx="90" cy="305" r="12"></circle><path d="M31.2 19h-.4A12.815 12.815 0 0 0 18 31.8v30.4A12.815 12.815 0 0 0 30.8 75h.4A12.815 12.815 0 0 0 44 62.2V31.8A12.815 12.815 0 0 0 31.2 19zM39 62.2a7.809 7.809 0 0 1-7.8 7.8h-.4a7.809 7.809 0 0 1-7.8-7.8V31.8a7.809 7.809 0 0 1 7.8-7.8h.4a7.809 7.809 0 0 1 7.8 7.8z"></path><circle cx="31" cy="47" r="4"></circle><circle cx="31" cy="32" r="6"></circle><circle cx="31" cy="62" r="6"></circle><path d="M144.961 185.55a10.667 10.667 0 0 1 5.066-9.186 12.488 12.488 0 0 0-8.24-4.633c-4.429-.799-6.193 2.067-9.57 2.067-3.357 0-4.728-2.195-7.984-2.209a8.332 8.332 0 0 0-1.52.142c-19.183 3.676-7.009 36.376 1.96 36.269 3.214 0 4.667-1.98 8.11-1.98 3.445 0 4.614 1.98 7.829 1.98 3.762.044 8.14-5.74 10.482-12.705a10.562 10.562 0 0 1-6.133-9.746zM141.159 159.993c-8.604 1.25-9.511 8.369-9.32 11.104 4.47.452 10.383-5.502 9.32-11.104z"></path></g></g></svg>