<svg xmlns="http://www.w3.org/2000/svg" width="512" height="512" style="shape-rendering:geometricPrecision;text-rendering:geometricPrecision;image-rendering:optimizeQuality;fill-rule:evenodd;clip-rule:evenodd"><path style="opacity:1" fill="#5c2483" d="M61.5-.5h388c33 8.333 53.667 29 62 62v388c-8.333 33-29 53.667-62 62h-388c-33-8.333-53.667-29-62-62v-388c8.333-33 29-53.667 62-62z"/><path style="opacity:1" fill="#fbfafc" d="M329.5 154.5c.351 2.369.518 4.703.5 7a92.393 92.393 0 0 0-15 14c-1.294-1.354-1.46-2.688-.5-4-.825-.886-1.825-1.219-3-1-2.48-3.8-4.813-7.8-7-12-9.66-10.976-21.66-14.142-36-9.5a189.12 189.12 0 0 0-29 13 1401.134 1401.134 0 0 0-37 27.5 519.077 519.077 0 0 1-15 15.5 4.934 4.934 0 0 1-3 .5v3h-3v3c-1.322-.17-2.489.163-3.5 1a556.413 556.413 0 0 0-23 27 28.931 28.931 0 0 1-1.5 4 718.115 718.115 0 0 0-12.5 16 335.193 335.193 0 0 1-13.5 24c-1.75 1.159-2.75 2.826-3 5a264.654 264.654 0 0 0-7 17c-1.745 1.533-2.745 3.533-3 6-3.731 11.704-4.898 23.704-3.5 36a23.776 23.776 0 0 1 2.5 6c2.283.108 4.283.941 6 2.5 6.181.819 12.181.653 18-.5 3.198.536 5.865-.131 8-2a239.62 239.62 0 0 0 39-14.5c48.77-26.562 94.77-57.396 138-92.5a420.334 420.334 0 0 0 23-18 298.771 298.771 0 0 1 26-21 3262.273 3262.273 0 0 0 43.5-39 435.733 435.733 0 0 1 16.5 35.5 204.13 204.13 0 0 1-30 25 31.58 31.58 0 0 1-5 6 3107.482 3107.482 0 0 1-53 40.5 24940.85 24940.85 0 0 1-27 20 1110.62 1110.62 0 0 1-58 40 28.043 28.043 0 0 1-5 1.5 476.263 476.263 0 0 1-23.5 15.5 2003.257 2003.257 0 0 0-22.5 11c-2.467.255-4.467 1.255-6 3a190.187 190.187 0 0 0-11.5 6 1176.227 1176.227 0 0 1-25.5 9 18.453 18.453 0 0 0-6 .5c-.556.383-.889.883-1 1.5-15.444 4.109-31.111 4.942-47 2.5-11.06-4.177-19.726-11.177-26-21a52.417 52.417 0 0 1-2-8.5 174.452 174.452 0 0 1 0-37c.585-7.674 2.418-15.007 5.5-22 12.731-29.442 29.565-56.442 50.5-81a589.786 589.786 0 0 1 50-50 428.323 428.323 0 0 1 24-17.5c7.035-5.172 14.702-9.339 23-12.5 2.467-.255 4.467-1.255 6-3h1c2.605-.121 4.605-1.121 6-3a219.248 219.248 0 0 1 20-6.5c24.39-4.147 43.556 3.687 57.5 23.5a131.569 131.569 0 0 0 3.5 7z"/><path style="opacity:1" fill="#b9a3c7" d="M248.5 130.5c-1.395 1.879-3.395 2.879-6 3 1.284-2.114 3.284-3.114 6-3z"/><path style="opacity:1" fill="#bba6ca" d="M241.5 133.5c-1.533 1.745-3.533 2.745-6 3 1.533-1.745 3.533-2.745 6-3z"/><path style="opacity:1" fill="#5c2483" d="M311.5 170.5a154.248 154.248 0 0 0 5 17l3 14a209.745 209.745 0 0 0 3 20v25c-43.23 35.104-89.23 65.938-138 92.5a239.62 239.62 0 0 1-39 14.5c-2.928.065-5.595.732-8 2-5.819 1.153-11.819 1.319-18 .5-1.717-1.559-3.717-2.392-6-2.5a23.776 23.776 0 0 0-2.5-6c-1.398-12.296-.231-24.296 3.5-36 2.039-1.411 3.039-3.411 3-6a264.654 264.654 0 0 1 7-17c1.908-.986 2.908-2.652 3-5a335.193 335.193 0 0 0 13.5-24 718.115 718.115 0 0 1 12.5-16 28.931 28.931 0 0 0 1.5-4 556.413 556.413 0 0 1 23-27c1.011-.837 2.178-1.17 3.5-1v-3h3v-3a4.934 4.934 0 0 0 3-.5 519.077 519.077 0 0 0 15-15.5 1401.134 1401.134 0 0 1 37-27.5 189.12 189.12 0 0 1 29-13c14.34-4.642 26.34-1.476 36 9.5 2.187 4.2 4.52 8.2 7 12z"/><path style="opacity:1" fill="#e2d8e9" d="M329.5 154.5c2.403 2.82 3.737 6.154 4 10a41.414 41.414 0 0 0 2 10.5l-1 3.5a303.507 303.507 0 0 0-15.5 13c-.122-1.937-.955-3.27-2.5-4a154.248 154.248 0 0 1-5-17c1.175-.219 2.175.114 3 1-.96 1.312-.794 2.646.5 4a92.393 92.393 0 0 1 15-14 45.296 45.296 0 0 0-.5-7z"/><path style="opacity:1" fill="#cfbfda" d="M333.5 164.5c1.086.12 1.753.787 2 2a262.345 262.345 0 0 1 2 12 80.236 80.236 0 0 1 0 17 284.58 284.58 0 0 0-15.5 13c.03-2.861-.803-5.195-2.5-7l-3-14c1.545.73 2.378 2.063 2.5 4a303.507 303.507 0 0 1 15.5-13l1-3.5a41.414 41.414 0 0 1-2-10.5z"/><path style="opacity:1" fill="#bda7cd" d="M337.5 178.5c.722.418 1.222 1.084 1.5 2 .411 5.019.911 10.019 1.5 15v3a25.879 25.879 0 0 1-1 10 287.945 287.945 0 0 1-17 13 209.745 209.745 0 0 1-3-20c1.697 1.805 2.53 4.139 2.5 7a284.58 284.58 0 0 1 15.5-13 80.236 80.236 0 0 0 0-17z"/><path style="opacity:1" fill="#906caa" d="M340.5 195.5c.722.418 1.222 1.084 1.5 2a188.261 188.261 0 0 1 1.5 21 153.556 153.556 0 0 1-3-20v-3z"/><path style="opacity:1" fill="#af94c2" d="M340.5 198.5c.56 6.729 1.56 13.396 3 20-.569 3.829.098 7.163 2 10a420.334 420.334 0 0 1-23 18v-25a287.945 287.945 0 0 0 17-13 25.879 25.879 0 0 0 1-10z"/><path style="opacity:1" fill="#a98cbd" d="M343.5 275.5c-.168 7.064-1.168 13.73-3 20a32.462 32.462 0 0 0-.5-8 104.568 104.568 0 0 1-17.5 12 145.495 145.495 0 0 0-3 9v-13h-3a24940.85 24940.85 0 0 0 27-20z"/><path style="opacity:1" fill="#9c78b2" d="M127.5 283.5c-.092 2.348-1.092 4.014-3 5 .25-2.174 1.25-3.841 3-5z"/><path style="opacity:1" fill="#c2aed1" d="M340.5 295.5c-.27 8.01-.77 16.01-1.5 24-.232 1.237-.732 2.237-1.5 3v-10c1.08-3.243 1.247-6.576.5-10a281.906 281.906 0 0 1-18.5 13v-7a145.495 145.495 0 0 1 3-9 104.568 104.568 0 0 0 17.5-12c.497 2.646.664 5.313.5 8z"/><path style="opacity:1" fill="#b198c1" d="M117.5 305.5c.039 2.589-.961 4.589-3 6 .255-2.467 1.255-4.467 3-6z"/><path style="opacity:1" fill="#d4c6de" d="M337.5 312.5c-.904.709-1.237 1.709-1 3a4.934 4.934 0 0 0-3 .5 179.735 179.735 0 0 1-14 9.5c-.087 3.832-1.087 7.165-3 10-.261-6.874.739-13.54 3-20a281.906 281.906 0 0 0 18.5-13c.747 3.424.58 6.757-.5 10z"/><path style="opacity:1" fill="#e9e2ee" d="M337.5 312.5v10c.302 2.559-.032 4.893-1 7v-4a101.876 101.876 0 0 1-12 6.5c-1.537 1.11-2.203 2.61-2 4.5-1.644-.214-3.144.12-4.5 1-.026 3.679-.86 7.012-2.5 10a73.314 73.314 0 0 0 1-12c1.913-2.835 2.913-6.168 3-10a179.735 179.735 0 0 0 14-9.5 4.934 4.934 0 0 1 3-.5c-.237-1.291.096-2.291 1-3z"/><path style="opacity:1" fill="#fbfafc" d="M336.5 329.5a160.278 160.278 0 0 0-1 17c-1.112 2.099-1.779 4.433-2 7v3h-18v-9c1.64-2.988 2.474-6.321 2.5-10 1.356-.88 2.856-1.214 4.5-1-.203-1.89.463-3.39 2-4.5a101.876 101.876 0 0 0 12-6.5v4z"/><path style="opacity:1" fill="#d8cde1" d="M82.5 319.5a174.452 174.452 0 0 0 0 37c-1.225-.652-1.892-1.819-2-3.5a121.038 121.038 0 0 1 .5-31.5c.278-.916.778-1.582 1.5-2z"/><path style="opacity:1" fill="#9f80b4" d="M335.5 346.5c.51 2.888-.156 5.221-2 7 .221-2.567.888-4.901 2-7z"/><path style="opacity:1" fill="#b59dc5" d="M145.5 353.5c-2.135 1.869-4.802 2.536-8 2 2.405-1.268 5.072-1.935 8-2z"/><path style="opacity:1" fill="#b9a5c8" d="M315.5 352.5v4h18c-6.479.991-13.146 1.324-20 1-.423-2.281.244-3.948 2-5z"/><path style="opacity:1" fill="#a88bbb" d="M207.5 363.5c-1.284 2.114-3.284 3.114-6 3 1.533-1.745 3.533-2.745 6-3z"/><path style="opacity:1" fill="#b9a4c9" d="M164.5 381.5c-2.015 1.424-4.348 2.09-7 2 .111-.617.444-1.117 1-1.5a18.453 18.453 0 0 1 6-.5z"/></svg>