<svg xmlns="http://www.w3.org/2000/svg" width="200" height="200" xml:space="preserve"><rect width="100%" height="100%" fill="transparent"/><path style="stroke:none;stroke-width:1;stroke-dasharray:none;stroke-linecap:butt;stroke-dashoffset:0;stroke-linejoin:miter;stroke-miterlimit:4;fill:#e00034;fill-rule:nonzero;opacity:1" vector-effect="non-scaling-stroke" transform="matrix(8.29 0 0 8.29 7.38 4.452)" d="M7.048 5.063C5.014 6.373 3.602 8.256 2.302 10.4c-.427-1.358-.409-2.562.102-3.745.112-.262.316-.427.567-.534.687-.3 1.365-.62 2.061-.883.316-.116.54-.31.734-.572 1.505-1.95 3.38-3.396 5.507-4.512.186-.097.418-.252.567-.068.111.145-.074.359-.167.534-.437.873-.678 1.814-.79 2.794-.046.398.065.563.474.534 2.127-.175 4.263-.117 6.39.048 1.105.087 2.21.194 3.268.553.66.223.994.621.985 1.106-.01.592-.427 1.087-1.068 1.31-.743.252-1.505.214-2.266.204-2.025-.03-4.059-.049-6.083-.116-1.495-.049-2.786.465-3.956 1.377-.474.369-.938.738-1.43 1.077-.344.233-.744.495-1.152.185-.427-.32-.27-.786-.177-1.203.214-.951.576-1.854.929-2.756.093-.214.167-.446.25-.67z"/><path style="stroke:none;stroke-width:1;stroke-dasharray:none;stroke-linecap:butt;stroke-dashoffset:0;stroke-linejoin:miter;stroke-miterlimit:4;fill:#e00034;fill-rule:nonzero;opacity:1" vector-effect="non-scaling-stroke" transform="matrix(8.29 0 0 8.29 7.397 -1.19)" d="M16.418 9.65c-1.155.582-2.3 1.154-3.454 1.736-.197.096-.385.22-.573.325-.904.524-.868.514-.68 1.621.528 3.157 1.333 6.238 1.95 9.367.028.124.046.248.046.372.035.677-.287 1.001-.922.915-.555-.076-.975-.448-1.351-.858-1.772-1.965-3.535-3.93-5.306-5.904-.439-.487-.439-.487-.868.019-.716.83-1.262 1.784-1.691 2.814-.072.162-.09.42-.331.42-.206 0-.314-.201-.403-.363-.501-.887-.69-1.88-.788-2.89-.25-2.566.51-4.836 1.817-6.944C4.365 9.469 4.92 8.696 5.6 8l-.403 1.66c-.098.381-.125.772-.098 1.163.044.83.653 1.278 1.396 1.03.626-.21 1.11-.639 1.601-1.068.76-.668 1.486-1.383 2.354-1.888.492-.287 1.002-.477 1.565-.506 2.255-.114 4.51.095 6.765.067.027 0 .054.028.143.076-.51.353-1.056.515-1.593.716-.295.152-.608.267-.912.4z"/></svg>