<svg xmlns="http://www.w3.org/2000/svg" width="32" height="32" id="bus"><g transform="translate(507 -1175.362)"><path fill="none" stroke="#2b4255" d="M-501.5 1185.357h-2v3.496m24.25-3.496h2v3.496"></path><path fill="#34485c" d="M-496 1202.362v2c0 .554-.446 1-1 1h-2c-.554 0-1-.446-1-1v-2m19 0v2c0 .554-.446 1-1 1h-2c-.554 0-1-.446-1-1v-2" color="#000" overflow="visible" style="isolation:auto;mix-blend-mode:normal"></path><path fill="#f8b84e" d="m-480 1202.361-21.008.001c-.992 0-.992-1-.992-1v-20.499c0-1.385 1.115-2.5 2.5-2.5h18c1.385 0 2.5 1.114 2.5 2.5v20.499s0 1-1 1z" color="#000" overflow="visible" style="isolation:auto;mix-blend-mode:normal"></path><rect width="25" height="3.001" x="-503" y="1197.367" fill="#576d7e" color="#000" overflow="visible" rx=".996" ry=".996" style="isolation:auto;mix-blend-mode:normal"></rect><path fill="none" stroke="#34485c" d="M-502 1182.862h23m-23 10.01h23"></path><path fill="none" stroke="#f05542" d="M-500.5 1195.366h3m14 0h3"></path><path fill="none" stroke="#34485c" d="M-490.5 1182.668v10.302"></path><path fill="#e9eded" d="M-501 1184.362h9v7.002h-9zm12 0h9v7.002h-9z" color="#000" overflow="visible" style="isolation:auto;mix-blend-mode:normal"></path></g></svg>