<svg xmlns="http://www.w3.org/2000/svg" data-name="Layer 3" viewBox="0 0 64 64" id="cash-back"><polygon fill="#8dbf00" points="15.003 36.997 45 7 62 24 29 57 25.345 53.345 15.003 36.997"></polygon><path fill="#aad313" d="M15,37,25.345,51.345h0a5.17,5.17,0,0,0,7.31,0L61,23,45,7Z"></path><path fill="#d7e0ef" d="M22.862,35.138,42,16h0a4.242,4.242,0,0,0,6,0h0l5,5h0a4.242,4.242,0,0,0,0,6h0L36.517,43.483"></path><circle cx="37" cy="32" r="6" fill="#fff"></circle><path fill="#0059be" d="M23,29H19a5,5,0,0,0-5,5h0a5,5,0,0,0,5,5h2V34L39,45,21,56V51H19A17,17,0,0,1,2,34H2A17,17,0,0,1,19,17H35Z"></path><path fill="#006bdb" d="M2.076,32.5A17,17,0,0,0,19,48h2v5l15.545-9.5L21,34v5H19a5,5,0,0,1-5-5h0a5,5,0,0,1,5-5h4L35,17H19A16.994,16.994,0,0,0,2.076,32.5Z"></path></svg>