<svg xmlns="http://www.w3.org/2000/svg" data-name="Layer 3" viewBox="0 0 64 64" id="cryptocurrency"><circle cx="46" cy="46" r="16" fill="#aab1b7"></circle><circle cx="46" cy="46" r="13" fill="#cacbcd"></circle><circle cx="46" cy="46" r="12" fill="#e4e5e7"></circle><path fill="#43525b" d="M48 45H44a1 1 0 0 1-.707-.293l-5-5 1.414-1.414L44.414 43h3.172l4.707-4.707 1.414 1.414-5 5A1 1 0 0 1 48 45zM52.293 53.707L47.586 49H44.414l-4.707 4.707-1.414-1.414 5-5A1 1 0 0 1 44 47h4a1 1 0 0 1 .707.293l5 5z"></path><circle cx="32" cy="32" r="16" fill="#1e5296"></circle><circle cx="32" cy="32" r="13" fill="#0f3360"></circle><circle cx="32" cy="32" r="12" fill="#2461a5"></circle><polygon fill="#aab1b7" points="38 30.001 32 22.999 26 30.001 32.001 34 38 30.001"></polygon><polygon fill="#aab1b7" points="25.999 33 32 37 38 33 32 41 25.999 33"></polygon><polygon fill="#91989d" points="32 37 32 41 38 33 32 37"></polygon><polygon fill="#91989d" points="32 22.999 32.001 34 38 30.001 32 22.999"></polygon><polygon fill="#43525b" points="32.001 29 32.001 34 38 30.001 32.001 29"></polygon><polygon fill="#69737a" points="26 30.001 32.001 34 32.001 29 26 30.001"></polygon><circle cx="18" cy="18" r="16" fill="#e2a23b"></circle><circle cx="18" cy="18" r="13" fill="#ce8d2e"></circle><circle cx="18" cy="18" r="12" fill="#f9d161"></circle><path fill="#fff" d="M22.828,17.828A3.987,3.987,0,0,0,21,11.142V9H19v2H17V9H15v2H12v2h2V23H12v2h3v2h2V25h2v2h2V24.857A3.986,3.986,0,0,0,22.645,18C22.707,17.945,22.768,17.888,22.828,17.828ZM20,23H16V19h4a2,2,0,1,1,0,4Zm.062-6c-.021,0-.066.011-.062,0H16V13h4a2,2,0,0,1,.062,4Z"></path></svg>