<svg xmlns="http://www.w3.org/2000/svg" data-name="Layer 1" viewBox="0 0 512 512" id="gas-cylinder"><path fill="#e4222e" d="M179.5 37.5h33.001v85H179.5zM299.5 37.5h33.001v85H299.5zM362.5 448v26.5a30 30 0 0 1-30 30h-153a30 30 0 0 1-30-30V448"></path><path fill="#c0232c" d="M317.5 448v26.5a30 30 0 0 1-30 30h45a30 30 0 0 0 30-30V448Z"></path><rect width="272" height="333" x="120" y="122.5" fill="#eb304a" rx="60"></rect><path fill="#e4222e" d="M332 122.5h-45a60 60 0 0 1 60 60v213a60 60 0 0 1-60 60h45a60 60 0 0 0 60-60v-213a60 60 0 0 0-60-60Z"></path><rect width="210" height="30" x="151" y="7.5" fill="#eb304a" rx="15"></rect><path fill="#e4222e" d="M346 7.5h-45a15 15 0 0 1 0 30h45a15 15 0 0 0 0-30Z"></path><path fill="#fddd5a" d="M273.224 368.106c-25.887 11.652-59.55-1.561-70.364-28.034-7.131-17.458-.614-35.926-.112-37.232 6.184-16.092 17.595-19.02 23.393-35.586 3.998-11.424 2.839-22.224 1.363-29.288a68.038 68.038 0 0 1 12.3 15.903 97.003 97.003 0 0 1 5.9 12.266 48.932 48.932 0 0 1 2.016 6.664c.462 2.074.288 4.201.77 6.237 1.487 6.276 7.56-3.677 8.599-5.402a34.482 34.482 0 0 0 5.04-15.469 36.879 36.879 0 0 0-3.66-18.685c-.4-.816-2.327-5.286-3.248-5.368a52.446 52.446 0 0 1 13.485 3.008c26.446 9.75 46.878 42.446 43.7 75.418-2.232 23.162-18.056 46.06-39.182 55.568Z"></path><path fill="#fed030" d="M226.141 267.254a42.822 42.822 0 0 1-7.223 12.951c1.974 3.6 7.212-4.98 8.17-6.57a34.481 34.481 0 0 0 5.04-15.47 36.88 36.88 0 0 0-3.658-18.685c-.09-.184-.261-.56-.478-1.023-.164-.163-.323-.33-.488-.49 1.476 7.063 2.635 17.863-1.363 29.287zm42.565-30.134a52.446 52.446 0 0 0-13.485-3.008c.92.082 2.849 4.552 3.249 5.368a36.544 36.544 0 0 1 2.337 6.104 37.062 37.062 0 0 1 1.33 7.724c13.86 15.029 22.406 37.061 20.269 59.23-2.232 23.162-18.056 46.06-39.182 55.568a47.226 47.226 0 0 1-5.55 2.075c11.649 3.348 24.33 2.976 35.55-2.075 21.126-9.508 36.95-32.406 39.182-55.568 3.178-32.972-17.254-65.667-43.7-75.418z"></path><path fill="#f9a242" d="M280.149 343.82c-.607 8.958-5.343 25.27-18.84 28.405-13.607 3.16-28.885-8.355-29.51-19.188-.454-7.853 6.82-14.874 8.588-16.581 6.78-6.544 11.715-5.662 15.463-11.045 2.298-3.3 4.213-9.106 1.22-19.93 14.994 8.68 24.09 23.42 23.079 38.338Z"></path><path fill="#f69531" d="M257.07 305.48c1.79 6.475 1.818 11.143 1.065 14.564a37.297 37.297 0 0 1 7.014 23.775c-.567 8.374-4.744 23.17-16.31 27.627a22.998 22.998 0 0 0 12.47.78c13.497-3.136 18.233-19.448 18.84-28.407 1.01-14.918-8.085-29.659-23.079-38.338Z"></path><path fill="#3c3b41" d="M478.87 457.524a1.5 1.5 0 0 0 0 3 1.5 1.5 0 0 0 0-3ZM271.3 230.084a60 60 0 0 0-15.394-3.44l-.02-.002a7.5 7.5 0 0 0-5.63 13.093c.239.439.604 1.167 1.162 2.372.137.297.247.53.317.675a29.37 29.37 0 0 1 2.912 14.864 25.436 25.436 0 0 1-1.507 6.983q-.204-.572-.42-1.145a104.554 104.554 0 0 0-6.341-13.223 75.367 75.367 0 0 0-13.648-17.672 7.5 7.5 0 0 0-12.569 6.912c1.922 9.195 1.552 17.699-1.1 25.276-2.466 7.045-6.114 11.08-10.338 15.753-4.432 4.901-9.455 10.457-12.976 19.618-.342.89-8.29 22.052.17 42.76 5.889 14.418 18.119 26.223 33.554 32.389a63.363 63.363 0 0 0 22.124 4.523 31.215 31.215 0 0 0 5.062.424 28.074 28.074 0 0 0 6.347-.713 26.705 26.705 0 0 0 4.723-1.566 54.59 54.59 0 0 0 8.575-3.019c23.524-10.589 41.033-35.38 43.568-61.688 3.407-35.342-17.928-71.877-48.57-83.175Zm1.366 113.229c-.317 4.68-2.772 16.402-10.147 20.479a43.617 43.617 0 0 1-9.45 1.067 20.738 20.738 0 0 1-7.873-3.689c-3.438-2.573-5.759-5.935-5.91-8.565-.077-1.328.384-5.033 6.31-10.753a23.78 23.78 0 0 1 6.801-4.54c2.936-1.461 6.589-3.28 9.608-7.615a22.115 22.115 0 0 0 3.355-7.585c5.142 6.342 7.808 13.782 7.306 21.2Zm32.274-31.493c-1.332 13.825-8.107 27.442-17.927 37.464a47.071 47.071 0 0 0 .619-4.958c1.199-17.7-9.072-35.072-26.804-45.336a7.5 7.5 0 0 0-10.987 8.49c1.213 4.387 2.173 10.316-.146 13.645-.79 1.134-1.585 1.566-3.982 2.758a38.563 38.563 0 0 0-10.534 7.177c-9.522 9.19-11.166 17.259-10.868 22.41a20.316 20.316 0 0 0 .25 2.139 42.956 42.956 0 0 1-14.758-18.373c-6.19-15.154-.115-31.545-.053-31.706 2.519-6.555 6.032-10.441 10.1-14.94 4.642-5.135 9.903-10.954 13.37-20.858a55.44 55.44 0 0 0 2.178-8.194 69.195 69.195 0 0 1 3.29 7.25 41.61 41.61 0 0 1 1.711 5.64 15.932 15.932 0 0 1 .213 1.98 26.528 26.528 0 0 0 .58 4.357c1.49 6.29 6.212 7.499 7.623 7.72 6.504 1.011 11.08-4.98 14.697-10.979a41.85 41.85 0 0 0 6.098-18.82 44.036 44.036 0 0 0-1.177-13.599c22.932 9.935 39.157 39.246 36.507 66.733ZM340 115.49V45h6a22.5 22.5 0 0 0 0-45H166a22.5 22.5 0 0 0 0 45h6v70.49a67.586 67.586 0 0 0-59.5 67.01v213a67.476 67.476 0 0 0 29.5 55.753V474.5a37.542 37.542 0 0 0 37.5 37.5h153a37.542 37.542 0 0 0 37.5-37.5v-23.247a67.476 67.476 0 0 0 29.5-55.753v-213a67.586 67.586 0 0 0-59.5-67.01ZM166 30a7.5 7.5 0 0 1 0-15h180a7.5 7.5 0 0 1 0 15Zm159 15v70h-18V45Zm-50.183 33.923h-37.634a7.5 7.5 0 0 0 0 15H248.5V115H220V45h72v70h-28.5V93.923h11.317a7.5 7.5 0 0 0 0-15ZM205 45v70h-18V45Zm150 429.5a22.525 22.525 0 0 1-22.5 22.5h-153a22.525 22.525 0 0 1-22.5-22.5v-15.54a67.183 67.183 0 0 0 23 4.04h152a67.183 67.183 0 0 0 23-4.04Zm29.5-79A52.56 52.56 0 0 1 332 448H180a52.56 52.56 0 0 1-52.5-52.5v-213A52.56 52.56 0 0 1 180 130h152a52.56 52.56 0 0 1 52.5 52.5Z"></path></svg>