<svg xmlns="http://www.w3.org/2000/svg" width="512" height="512" style="shape-rendering:geometricPrecision;text-rendering:geometricPrecision;image-rendering:optimizeQuality;fill-rule:evenodd;clip-rule:evenodd"><path style="opacity:1" fill="#0038ae" d="M-.5-.5h512v512H-.5V-.5z"/><path style="opacity:1" fill="#f7f8fc" d="M148.5 242.5c-3.873 1.93-8.206 2.597-13 2-1.288-3.782-3.955-5.949-8-6.5-13.29-2.042-19.623 3.625-19 17-.793 14.272 5.873 20.272 20 18 3.681-1.837 6.015-4.67 7-8.5h13c-2.613 10.443-9.279 16.609-20 18.5-21.243 2.253-32.576-7.247-34-28.5 2.43-20.066 13.763-28.899 34-26.5 9.408 1.191 16.075 6.024 20 14.5z"/><path style="opacity:1" fill="#7e9ad6" d="M162.5 229.5c2.141-.663 4.475-.997 7-1 2.769.029 5.103.695 7 2a53.805 53.805 0 0 0-14-1z"/><path style="opacity:1" fill="#f6f8fc" d="M290.5 276.5v5h-12v-24c-6.561-.581-12.895.252-19 2.5-4.519 5.215-3.853 9.549 2 13 5.315 1.343 9.648-.157 13-4.5 1.333 3.333 1.333 6.667 0 10-10.049 7.112-19.549 6.445-28.5-2-5.822-13.518-1.656-22.351 12.5-26.5 6.325-.5 12.658-.666 19-.5.48-8-3.353-12-11.5-12-7.336.556-14.003 2.889-20 7 .14-4.727 1.307-9.227 3.5-13.5 11.083-4.44 22.083-4.44 33 0 2.933 2.264 5.1 5.098 6.5 8.5a262.66 262.66 0 0 1 1.5 37z"/><path style="opacity:1" fill="#f5f6fb" d="M56.5 229.5h14a400.606 400.606 0 0 0 1 40h22v13h-37v-53z"/><path style="opacity:1" fill="#7e9ad5" d="M56.5 229.5c4.805-.987 9.805-1.321 15-1v41a400.606 400.606 0 0 1-1-40h-14z"/><path style="opacity:1" fill="#f7f8fc" d="M194.5 280.5a69.302 69.302 0 0 1-16 1 2337.671 2337.671 0 0 0-16-52c4.763-.274 9.43.059 14 1 3.34 12.36 6.84 24.693 10.5 37a1363.86 1363.86 0 0 0 9.5-39 64.873 64.873 0 0 1 16 1 800.032 800.032 0 0 1 10.5 38l10.5-38a43.117 43.117 0 0 1 13-1 2379.357 2379.357 0 0 1-15 53 64.873 64.873 0 0 1-16 1 1845.225 1845.225 0 0 0-10.5-41 335.997 335.997 0 0 0-10.5 39z"/><path style="opacity:1" fill="#6e8cd0" d="M295.5 228.5h15v54h-15v-54z"/><path style="opacity:1" fill="#fefffe" d="M296.5 229.5h13v52h-13v-52z"/><path style="opacity:1" fill="#f9fafd" d="M364.5 280.5c-5.475.989-11.142 1.322-17 1a481.099 481.099 0 0 0-16.5-24c-.5 8.327-.666 16.66-.5 25h-14v-54h14c-.166 7.008 0 14.008.5 21a446.639 446.639 0 0 0 15.5-20 48.73 48.73 0 0 1 17-.5l-20 24a809.185 809.185 0 0 1 21 27.5z"/><path style="opacity:1" fill="#6e8cd0" d="M367.5 228.5h15v54h-15v-54z"/><path style="opacity:1" fill="#fefffe" d="M368.5 229.5h13v52h-13v-52z"/><path style="opacity:1" fill="#f9fafd" d="M402.5 268.5c-.985 4.134-1.318 8.468-1 13h-13v-52h13c-.166 7.008 0 14.008.5 21 .717-.544 1.217-1.211 1.5-2 4.87-6.56 9.87-13.06 15-19.5a43.233 43.233 0 0 1 16 .5 1009.103 1009.103 0 0 1-19 23.5 462.584 462.584 0 0 0 22 29c-6 .667-12 .667-18 0L403 257.5a60.931 60.931 0 0 0-.5 11z"/><path style="opacity:1" fill="#6987ce" d="M403.5 248.5c-.283.789-.783 1.456-1.5 2-.5-6.992-.666-13.992-.5-21h-13v53a729.55 729.55 0 0 1-1-54h15c-.324 6.854.009 13.521 1 20z"/><path style="opacity:1" fill="#5476c8" d="M454.5 229.5h-14v52h14c-4.805.987-9.805 1.321-15 1v-54c5.195-.321 10.195.013 15 1z"/><path style="opacity:1" fill="#fafbfd" d="M454.5 229.5v52h-14v-52h14z"/><path style="opacity:1" fill="#6988ce" d="M148.5 242.5c.904.709 1.237 1.709 1 3-4.863.319-9.53-.014-14-1 4.794.597 9.127-.07 13-2z"/><path style="opacity:1" fill="#7995d3" d="M194.5 280.5c-2.243 1.312-4.91 1.978-8 2-2.855-.003-5.522-.336-8-1a69.302 69.302 0 0 0 16-1z"/><path style="opacity:1" fill="#86a0d8" d="M290.5 276.5c.961 1.765 1.295 3.765 1 6-4.532.318-8.866-.015-13-1h12v-5z"/><path style="opacity:1" fill="#7b98d4" d="M364.5 280.5c.543.06.876.393 1 1-6.154 1.317-12.154 1.317-18 0 5.858.322 11.525-.011 17-1z"/><path style="opacity:1" fill="#7e9ad5" d="M402.5 268.5v14h-14v-1h13c-.318-4.532.015-8.866 1-13z"/></svg>