<svg xmlns="http://www.w3.org/2000/svg" width="231" height="218" style="shape-rendering:geometricPrecision;text-rendering:geometricPrecision;image-rendering:optimizeQuality;fill-rule:evenodd;clip-rule:evenodd"><path style="opacity:.004" fill="#fefffe" d="M92.5 1.5a2.427 2.427 0 0 1-2-.5c.937-.692 1.603-.525 2 .5z"/><path style="opacity:.997" fill="#d43157" d="M230.5 101.5v15c-6.544 49.89-33.877 82.39-82 97.5a221.002 221.002 0 0 1-20 3.5h-15a1717.353 1717.353 0 0 1-19-3.5l-28-11c-15.615-5.217-30.949-4.551-46 2-11.255 2.043-18.255-2.457-21-13.5v-7c7.012-8.556 12.179-18.223 15.5-29 .99-5.787 1.49-11.62 1.5-17.5-9.876-51.534 6.457-92.2 49-122 28.021-16.353 57.688-20.02 89-11 44.946 16.773 70.279 48.94 76 96.5z"/><path style="opacity:.004" fill="#fefffe" d="M155.5 1.5c1.333.667 1.333.667 0 0zM160.5 4.5v-1c2.667.333 2.667.667 0 1zM81.5 5.5c-.667-1.333-.667-1.333 0 0zM163.5 4.5c1.333.667 1.333.667 0 0zM167.5 6.5c1.333.667 1.333.667 0 0zM173.5 9.5c1.333.667 1.333.667 0 0zM175.5 10.5c1.333.667 1.333.667 0 0zM177.5 11.5c1.333.667 1.333.667 0 0z"/><path style="opacity:.075" fill="#fcf1f3" d="M94.5-.5h3c1.667 1.333 3.333 1.333 5 0h39c1.333 1.333 2.667 1.333 4 0h5c-.418.722-1.084 1.222-2 1.5 1.535.496 3.035.33 4.5-.5 1.762.444 1.595.944-.5 1.5.948.483 1.948.65 3 .5 1.643.15 3.31.483 5 1-2.667.333-2.667.667 0 1 .709.904 1.709 1.237 3 1 1.014 1.174 2.347 1.84 4 2 .672.767 1.505 1.434 2.5 2 1.292-1.291 2.458-1.291 3.5 0-2.667.333-2.667.667 0 1 .342.838 1.008 1.172 2 1 .342.838 1.008 1.172 2 1 2.665 1.32 5.665 2.82 9 4.5 1.425 1.362 2.258 2.862 2.5 4.5.718-.95 1.551-1.117 2.5-.5 1.333.667 1.333 1.333 0 2 .753 1.487 1.586 1.654 2.5.5 5.072 4.53 9.239 9.197 12.5 14a81.216 81.216 0 0 0 3 2.5c-1.154.914-.987 1.747.5 2.5 1.666-.84 1.833-.34.5 1.5.753 1.487 1.586 1.654 2.5.5.464.594.631 1.261.5 2-1.333.333-1.333.667 0 1 .432 1.21 1.099 2.21 2 3 .432 1.21 1.099 2.21 2 3 1.626 1.312 2.626 3.312 3 6-.172.992.162 1.658 1 2-.172.992.162 1.658 1 2-.237 1.291.096 2.291 1 3a10.136 10.136 0 0 0 1.5 4l1-2c1.362 2.795 1.862 5.462 1.5 8-.268 1.599.066 2.932 1 4-.284 1.915.049 3.581 1 5-.295 2.235.039 4.235 1 6v10c-5.721-47.56-31.054-79.727-76-96.5-31.312-9.02-60.979-5.353-89 11-42.543 29.8-58.876 70.466-49 122-.01 5.88-.51 11.713-1.5 17.5-3.321 10.777-8.488 20.444-15.5 29v-6a12.641 12.641 0 0 0 4-2.5c-1.134-1.016-.8-1.683 1-2l-1-1c1.349-.772 2.182-1.939 2.5-3.5.667 1.333 1.333 1.333 2 0 1.495-1.61 1.661-3.276.5-5 3.39-2.82 5.057-6.486 5-11 2.367-9.983 2.367-19.983 0-30a60.94 60.94 0 0 0-.5-11l-1 10a60.94 60.94 0 0 1-.5-11c1.083-5.502 1.083-11.168 0-17l.5-5 1 8c.498-3.317.665-6.65.5-10 1.082-1.827 1.082-3.827 0-6l.5-2c1.043 3.726 1.543 3.393 1.5-1 1.6-1.798 1.934-3.798 1-6l2-1c-1.402-1.343-1.069-2.176 1-2.5-1.017-1.05-1.184-2.216-.5-3.5l1 2c2.657-4.253 4.324-8.586 5-13l1 1c1.113-1.26 1.28-2.427.5-3.5 2.768-.708 3.6-2.208 2.5-4.5.914 1.154 1.747.987 2.5-.5l-1-1 4.5-6.5 1 1c.191-2.151 1.358-4.151 3.5-6 1.262-1.798 3.095-3.799 5.5-6l1 1a21.52 21.52 0 0 0 5-6c1.364.758 2.53.258 3.5-1.5l-1-1c1.26-1.113 2.427-1.28 3.5-.5 1.758-.97 2.258-2.136 1.5-3.5 1.26-1.113 2.427-1.28 3.5-.5a7.291 7.291 0 0 0 2-3c1.749.799 3.082.132 4-2l1 1a218.731 218.731 0 0 0 12.5-7c.475-1.23 1.808-2.23 4-3 1.656 1.522 2.823 1.189 3.5-1 1.292 1.291 2.458 1.291 3.5 0a8.434 8.434 0 0 0 4-.5c-.916-.278-1.582-.778-2-1.5z"/><path style="opacity:.004" fill="#fefffe" d="M206.5 36.5c1.333.667 1.333.667 0 0zM213.5 46.5c1.333.667 1.333.667 0 0zM215.5 49.5c1.333.667 1.333.667 0 0zM217.5 52.5c1.333.667 1.333.667 0 0zM220.5 59.5a2.429 2.429 0 0 1 .5-2c.692.937.525 1.603-.5 2zM221.5 60.5c1.333.667 1.333.667 0 0zM222.5 62.5c1.333.667 1.333.667 0 0zM223.5 66.5a2.429 2.429 0 0 1 .5-2c.692.937.525 1.603-.5 2zM227.5 75.5c1.333.667 1.333.667 0 0z"/><path style="opacity:.997" fill="#fdfafa" d="M124.5 76.5c23.555-2.263 36.888 8.237 40 31.5a233.97 233.97 0 0 1-2 16.5 25.105 25.105 0 0 0 3 11.5c-.601 1.605-1.601 2.938-3 4a96.485 96.485 0 0 1-15.5-1.5c-22.579 6.377-37.912-1.289-46-23-2.278-19.198 5.555-32.198 23.5-39z"/><path style="opacity:.004" fill="#fefffe" d="M15.5 78.5c-.667-1.333-.667-1.333 0 0z"/><path style="opacity:.997" fill="#fdfafb" d="M55.5 77.5c19.578-2.475 32.412 5.525 38.5 24a306.485 306.485 0 0 1 0 35c-3.667 4-7.333 4-11 0l-1-31C78.257 93.373 70.09 88.54 57.5 91c-5.561 2.562-9.395 6.728-11.5 12.5l-1 32c-2.053 3.792-5.22 4.958-9.5 3.5l-1.5-1.5a91.062 91.062 0 0 1-1.5-18.5c-2.55-19.751 5.117-33.584 23-41.5z"/><path style="opacity:.996" fill="#fdfbfb" d="M193.5 77.5c5.676-.166 11.343 0 17 .5 5.636 3.203 6.302 7.203 2 12l-17 1c-5.992 2.659-9.825 7.159-11.5 13.5l-1 32c-3.713 3.987-7.38 3.987-11 0a342.33 342.33 0 0 1 0-37c4.045-10.544 11.212-17.877 21.5-22z"/><path style="opacity:.004" fill="#fefffe" d="M228.5 80.5a4.934 4.934 0 0 1 .5-3c.74 1.25.573 2.25-.5 3zM230.5 81.5v4h-1c-.268-1.599.066-2.932 1-4zM13.5 87.5c-1.073-.75-1.24-1.75-.5-3 .483.948.65 1.948.5 3z"/><path style="opacity:.996" fill="#d43257" d="M126.5 89.5c15.67-1.815 24.336 5.019 26 20.5.179 5.789-1.154 11.122-4 16a66.398 66.398 0 0 1-22 1c-13.197-6.929-16.364-17.096-9.5-30.5 2.79-2.965 5.957-5.298 9.5-7z"/><path style="opacity:.004" fill="#fefffe" d="M11.5 111.5c-1.143-3.476-1.31-7.142-.5-11a60.94 60.94 0 0 1 .5 11zM13.5 123.5a60.94 60.94 0 0 1-.5 11c-.81-3.858-.643-7.524.5-11zM229.5 132.5h1v5h-1v-5zM228.5 137.5h1c.237 1.291-.096 2.291-1 3v-3zM227.5 140.5h1c-.333 2.667-.667 2.667-1 0zM226.5 143.5c1.333 1 1.333 2 0 3v-3zM225.5 146.5h1c-.333 2.667-.667 2.667-1 0zM13.5 153.5c-1.123-1.788-1.29-3.788-.5-6 .495 1.973.662 3.973.5 6zM224.5 149.5c1.333.667 1.333.667 0 0zM223.5 151.5c1.025.397 1.192 1.063.5 2a2.428 2.428 0 0 1-.5-2zM220.5 157.5h1c.172.992-.162 1.658-1 2v-2zM219.5 159.5h1c-.185.67-.519.67-1 0zM218.5 161.5c1.333.667 1.333 1.333 0 2v-2zM217.5 163.5h1c-.185.67-.519.67-1 0zM216.5 165.5c1.333.667 1.333.667 0 0zM214.5 168.5h1c-.185.67-.519.67-1 0zM213.5 169.5h1c-.185.67-.519.67-1 0zM212.5 171.5c1.333.667 1.333.667 0 0zM209.5 175.5h1c-.185.67-.519.67-1 0zM204.5 181.5h1c-.185.67-.519.67-1 0z"/><path style="opacity:.068" fill="#fbeef0" d="M230.5 116.5v11c-.951 1.419-1.284 3.085-1 5-.951 1.419-1.284 3.085-1 5-.904.709-1.237 1.709-1 3-.904.709-1.237 1.709-1 3-.904.709-1.237 1.709-1 3-.904.709-1.237 1.709-1 3-.838.342-1.172 1.008-1 2-1.489 1.999-2.156 3.999-2 6-.333-1.333-.667-1.333-1 0-.838.342-1.172 1.008-1 2-.838.342-1.172 1.008-1 2-.838.342-1.172 1.008-1 2-.838.342-1.172 1.008-1 2-1.333.333-1.333.667 0 1 .172.992-.162 1.658-1 2-.333-1.333-.667-1.333-1 0-.667 0-1 .333-1 1-.838.342-1.172 1.008-1 2-1.333.333-1.333.667 0 1-.432 1.21-1.099 2.21-2 3-.333-1.333-.667-1.333-1 0-1.333.333-1.333.667 0 1a394.181 394.181 0 0 1-4 5c-.333-1.333-.667-1.333-1 0-.667 0-1 .333-1 1-1.333.333-1.333.667 0 1-2.333 3-5 5.667-8 8-.333-1.333-.667-1.333-1 0-.667 0-1 .333-1 1-.667 0-1 .333-1 1-1.333.333-1.333.667 0 1-.342.838-1.008 1.172-2 1-.333-1.333-.667-1.333-1 0-.667 0-1 .333-1 1-.667 0-1 .333-1 1-.667 0-1 .333-1 1l-2 2c-.333-1.333-.667-1.333-1 0-1.21.432-2.21 1.099-3 2l-2 2c-.333-1.333-.667-1.333-1 0-.992-.172-1.658.162-2 1l-3 2c-.333-1.333-.667-1.333-1 0-.992-.172-1.658.162-2 1-.992-.172-1.658.162-2 1-2.667.333-2.667.667 0 1-.709.904-1.709 1.237-3 1-.333-1.333-.667-1.333-1 0-1.291-.237-2.291.096-3 1-1.291-.237-2.291.096-3 1-1.291-.237-2.291.096-3 1-1.291-.237-2.291.096-3 1-3.227.176-6.227.843-9 2h-14a221.002 221.002 0 0 0 20-3.5c48.123-15.11 75.456-47.61 82-97.5z"/><path style="opacity:.004" fill="#fefffe" d="M203.5 182.5h1c-.185.67-.519.67-1 0zM194.5 191.5h1c-.185.67-.519.67-1 0zM193.5 192.5h1c-.185.67-.519.67-1 0zM192.5 193.5h1c-.185.67-.519.67-1 0zM189.5 195.5h1c-.185.67-.519.67-1 0zM188.5 196.5h1c-.185.67-.519.67-1 0zM187.5 197.5h1c-.185.67-.519.67-1 0zM186.5 198.5h1c-.185.67-.519.67-1 0z"/><path style="opacity:.102" fill="#fcf1f3" d="M-.5 191.5c2.745 11.043 9.745 15.543 21 13.5 15.051-6.551 30.385-7.217 46-2l28 11a1717.353 1717.353 0 0 0 19 3.5h-12c-1.419-.951-3.085-1.284-5-1-1.323-1.108-2.823-1.108-4.5 0-1.762-.444-1.595-.944.5-1.5a4.934 4.934 0 0 0-3-.5c-.709-.904-1.709-1.237-3-1-.342-.838-1.008-1.172-2-1-1.014-1.174-2.347-1.84-4-2-.709-.904-1.709-1.237-3-1-.342-.838-1.008-1.172-2-1-.761-.891-1.761-1.558-3-2-1.268.928-2.601 1.095-4 .5 2.432-1.087 2.098-1.587-1-1.5-1-1.333-2-1.333-3 0-3.098.087-3.432-.413-1-1.5a8.43 8.43 0 0 0-4-.5 1577.95 1577.95 0 0 0-27 0c-1.599-.268-2.932.066-4 1-1.291-.237-2.291.096-3 1-1.291-.237-2.291.096-3 1l-4 2c-2.107-.968-4.44-1.302-7-1-.709-.904-1.709-1.237-3-1-.342-.838-1.008-1.172-2-1-3.264-1.64-5.598-3.64-7-6v-1c1.333-.333 1.333-.667 0-1v-6z"/><path style="opacity:.004" fill="#fefffe" d="M183.5 200.5h1c-.185.67-.519.67-1 0zM180.5 202.5c1.333.667 1.333.667 0 0zM32.5 203.5a2.429 2.429 0 0 1 2 .5c-.937.692-1.603.525-2-.5zM59.5 203.5c-.75 1.073-1.75 1.24-3 .5a4.934 4.934 0 0 1 3-.5zM28.5 204.5a2.429 2.429 0 0 1 2 .5c-.937.692-1.603.525-2-.5zM177.5 204.5h1c-.185.67-.519.67-1 0zM6.5 205.5c-.667.667-.667.667 0 0zM25.5 205.5a2.429 2.429 0 0 1 2 .5c-.937.692-1.603.525-2-.5zM64.5 205.5h3c-1 1.333-2 1.333-3 0zM175.5 205.5c1.333.667 1.333.667 0 0zM8.5 206.5c-.667.667-.667.667 0 0zM22.5 206.5a2.429 2.429 0 0 1 2 .5c-.937.692-1.603.525-2-.5zM11.5 207.5c-.397 1.025-1.063 1.192-2 .5a2.429 2.429 0 0 1 2-.5zM171.5 207.5h1c-.185.67-.519.67-1 0zM18.5 208.5c-1.788 1.122-3.788 1.289-6 .5a18.452 18.452 0 0 1 6-.5zM75.5 208.5c-.397 1.025-1.063 1.192-2 .5a2.429 2.429 0 0 1 2-.5zM169.5 208.5c1.333.667 1.333.667 0 0zM77.5 209.5c-.667.667-.667.667 0 0zM167.5 209.5c1.333.667 1.333.667 0 0zM80.5 210.5c-.397 1.025-1.063 1.192-2 .5a2.429 2.429 0 0 1 2-.5zM163.5 211.5h1c-.185.67-.519.67-1 0zM84.5 212.5c-.397 1.025-1.063 1.192-2 .5a2.429 2.429 0 0 1 2-.5zM160.5 212.5a2.428 2.428 0 0 1 2 .5c-.937.692-1.603.525-2-.5zM86.5 213.5c-.667.667-.667.667 0 0zM157.5 213.5a2.428 2.428 0 0 1 2 .5c-.937.692-1.603.525-2-.5zM89.5 214.5c-.667.667-.667.667 0 0zM154.5 215.5v-1c2.667.333 2.667.667 0 1zM151.5 215.5h3c-1 1.333-2 1.333-3 0zM-.5 216.5c.667 0 1 .333 1 1l-1-1zM94.5 217.5c.342-.838 1.008-1.172 2-1v1h-2zM148.5 217.5c.667-1.333 1.333-1.333 2 0h-2z"/></svg>