<svg xmlns="http://www.w3.org/2000/svg" enable-background="new 0 0 64 64" viewBox="0 0 64 64" id="medicine"><path fill="#7986cb" d="M34,19c-0.7202148,0.0545044-1.4789429-0.0461426-1.5849609-0.9004517
				c0,0.000061-0.4199219-4.1991577-0.4199219-4.1991577C31.9438477,13.3896484,31.5136719,13,31,13H11
				c-0.5136719,0-0.9438477,0.3896484-0.9951172,0.9003906l-0.4199219,4.1992188C9.5336914,18.6132812,9.105957,19,8.5898438,19
				c-1.8387451-0.2219238-3.6071777,1.0759277-3.5897827,3.000061C5,22,5,48,5,48c0,1.6542969,1.3457031,3,3,3h21v-1h0.8248291
				C29.3015137,48.4244385,29,46.7490845,29,45c0-5.9065552,3.2258301-11.0632324,8-13.835022V22C37,20.3457031,35.6542969,19,34,19
				z"></path><path fill="#fdd835" d="M37,31.164978V24H5.000061C5,28.265564,5,38.3522949,5,44h24.0506592
				C29.3922729,38.5155029,32.4986572,33.7783813,37,31.164978z"></path><path fill="#1a237e" d="M25.949707,29.0507812c-1.5112305-1.5117188-4.1464844-1.5117188-5.6567383,0l-4.2426758,4.2421875
					c-3.6381826,3.8204651,1.8364697,9.2963028,5.6568241,5.6561623c-0.0000858,0.0000877,4.24259-4.2420998,4.24259-4.2420998
					C27.5008144,33.218235,27.5014992,30.5389843,25.949707,29.0507812z"></path><path fill="#d32f2f" d="M23.8282471,36.8282471l2.12146-2.1212158c1.5512772-1.4889488,1.5516701-4.1679363-0.0000458-5.6562481
					c-1.5111847-1.5117207-4.1464386-1.5117207-5.6566925-0.0000019l-2.1212158,2.1209717L23.8282471,36.8282471z"></path><path fill="#bdbdbd" d="M32,5H10C8.3457031,5,7,6.3457031,7,8v4c0,1.6542969,1.3457031,3,3,3h22c1.6542969,0,3-1.3457031,3-3V8
				C35,6.3457031,33.6542969,5,32,5z"></path><circle cx="45" cy="45" r="14" fill="#33691e"></circle><path fill="#7cb342" d="M51.125,41.5H48.5v-2.625c0-0.4836426-0.3917847-0.875-0.875-0.875h-5.25
			c-0.4832153,0-0.875,0.3913574-0.875,0.875V41.5h-2.625C38.3917847,41.5,38,41.8913574,38,42.375v5.25
			c0,0.4836426,0.3917847,0.875,0.875,0.875H41.5v2.625c0,0.4836426,0.3917847,0.875,0.875,0.875h5.25
			c0.4832153,0,0.875-0.3913574,0.875-0.875V48.5h2.625c0.4832153,0,0.875-0.3913574,0.875-0.875v-5.25
			C52,41.8913574,51.6082153,41.5,51.125,41.5z"></path><path d="M20.2929688,29.0507812l-4.2426758,4.2421875c-0.7553711,0.7558594-1.1713867,1.7597656-1.1713867,2.828125
			c-0.0856209,3.4816933,4.4270401,5.3525734,6.8281708,2.8279953c-0.0000458,0.0001297,4.24263-4.2420578,4.24263-4.2420578
			c0.7553711-0.7558594,1.1713867-1.7597656,1.1713867-2.828125C27.2144032,28.3894291,22.7034645,26.6010971,20.2929688,29.0507812
			z M20.2929688,37.5351562c-1.9025574,1.7874146-4.6560526-0.9278641-2.8285465-2.8281898
			c-0.0000668,0.0000648,1.4143009-1.4141808,1.4143009-1.4141808l2.8283691,2.8283691L20.2929688,37.5351562z
			 M24.5356445,30.4648438c0.775383,0.7447472,0.7753849,2.0834084-0.0000229,2.828125
			c0.0000229,0-1.4143448,1.4142456-1.4143448,1.4142456l-2.8283691-2.8283691l1.4141235-1.4140015
			C22.4514389,29.6888695,23.7910366,29.6886063,24.5356445,30.4648438z"></path><path d="M29.7998047,49H8c-0.5512695,0-1-0.4482422-1-1v-4h22.1298828c0.5522461,0,1-0.4472656,1-1s-0.4477539-1-1-1H7V26h28
			v5.7802734c0.0040817,1.3030281,1.9948311,1.3114014,1.9999962-0.0000668C37,31.7802734,37,22,37,22c0-1.6542969-1.3457031-3-3-3
			c-0.7091713,0.055584-1.4853401-0.0463009-1.5849457-0.8994617c-0.0000153,0.0000477-0.3110504-3.1110363-0.3110504-3.1110363
			C33.7092285,14.9332275,35,13.6187134,35,12V8c0-1.6542969-1.3457031-3-3-3H10C8.3457031,5,7,6.3457031,7,8v4
			c0,1.6187134,1.2908325,2.9332886,2.8960571,2.989502l-0.3110962,3.1130371C9.534668,18.6142578,9.1069336,19,8.5898438,19
			c-1.8399734-0.2203903-3.6063151,1.0748291-3.5898108,3.0000744C5,22,5,48,5,48c0,1.6542969,1.3457031,3,3,3h21.7998047
			C31.0988407,50.9876289,31.1160965,49.0112381,29.7998047,49z M9,12V8c0-0.5517578,0.4487305-1,1-1h22
			c0.5512695,0,1,0.4482422,1,1v4c0,0.5517578-0.4487305,1-1,1H10C9.4487305,13,9,12.5517578,9,12z M8,21
			c1.7332106,0.1992702,3.418251-0.8985615,3.5751657-2.700264C11.5751953,18.2998047,11.9047852,15,11.9047852,15h18.1904297
			l0.3295898,3.2978516C30.5761719,19.8378906,31.859375,21,33.4101562,21H34c0.5512695,0,1,0.4482422,1,1v2H7v-2
			C7,21.4482422,7.4487305,21,8,21z"></path><path d="M45,31c-7.7197266,0-14,6.2802734-14,14c0.7688751,18.572937,27.2339554,18.5675278,28.0000267-0.0001068
			C59,37.2802734,52.7197266,31,45,31z M45,57c-6.6166992,0-12-5.3828125-12-12
			c0.6589546-15.9196587,23.3434677-15.9150238,24.0000229,0.0000916C57,51.6171875,51.6166992,57,45,57z"></path><path d="M52,41h-3v-3c0-0.5527344-0.4477539-1-1-1h-6c-0.5522461,0-1,0.4472656-1,1v3h-3c-0.5522461,0-1,0.4472656-1,1v6
			c0,0.5527344,0.4477539,1,1,1h3v3c0,0.5527344,0.4477539,1,1,1h6c0.5522461,0,1-0.4472656,1-1v-3h3c0.5522461,0,1-0.4472656,1-1
			v-6C53,41.4472656,52.5522461,41,52,41z M51,47c-4.5933838,0.0208473-3.9751778-0.5789452-4,4h-4
			c-0.0208092-4.5934944,0.5788345-3.9751434-4-4v-4c4.5933838-0.0208473,3.9751778,0.5789452,4-4h4
			c0.0208092,4.5934944-0.5788345,3.9751434,4,4V47z"></path></svg>