<svg xmlns="http://www.w3.org/2000/svg" data-name="Layer 3" viewBox="0 0 64 64" id="scooter"><polygon fill="#ed8213" points="44.766 9 36 9 36 13 44.334 13 44.766 9"></polygon><polygon fill="#f89b1c" points="44.55 11 36 11 36 13 44.334 13 44.55 11"></polygon><rect width="35" height="4" x="12" y="45" fill="#93add1"></rect><path fill="#f89b1c" d="M62,51a9,9,0,0,0-8.576-8.99l-3.88.677A9,9,0,0,0,44,51Z"></path><path fill="#fdb716" d="M45 51h4.985l-1.271-7.257A8.967 8.967 0 0045 51zM62 51a8.988 8.988 0 00-7.539-8.863L56.015 51z"></path><path fill="#f89b1c" d="M19.777,49A9,9,0,0,0,2,51H6"></path><path fill="#fdb716" d="M11.656,42.029A8.992,8.992,0,0,0,3.223,51H6l13.777-2A9,9,0,0,0,11.656,42.029Z"></path><path fill="#383838" d="M15.607,49.054A5,5,0,1,0,15.584,53"></path><path fill="#4c4c4c" d="M11,46a4.954,4.954,0,0,0-2.2.528,5,5,0,0,0,5.73,7.991A5.01,5.01,0,0,0,15.584,53l.023-3.946A5,5,0,0,0,11,46Z"></path><path fill="#a3b8db" d="M26,49a4,4,0,0,1-4,4H12a2,2,0,0,1-2-2h0a2,2,0,0,1,2-2Z"></path><path fill="#383838" d="M50.267,46.813a5,5,0,1,0,3.88-.681"></path><path fill="#c0cee8" d="M14,51H24a3.961,3.961,0,0,0,1.64-.36A3.961,3.961,0,0,0,26,49H12A2,2,0,0,0,14,51Z"></path><path fill="#4c4c4c" d="M54,55a4.959,4.959,0,0,0,2.988-1.012,4.976,4.976,0,0,0-2.841-7.856l-3.88.68c-.081.053-.155.116-.232.173A4.977,4.977,0,0,0,54,55Z"></path><polygon fill="#f89b1c" points="48.449 13.627 55 51 51 51 44.171 12 48.449 13.627"></polygon><polygon fill="#ed8213" points="46.131 12.745 52.829 51 55 51 48.449 13.627 46.131 12.745"></polygon><circle cx="47" cy="11" r="3" fill="#383838"></circle><path fill="#4c4c4c" d="M47,8a2.965,2.965,0,0,0-1.554.446A2.965,2.965,0,0,0,45,10a3,3,0,0,0,3,3,2.965,2.965,0,0,0,1.554-.446A2.965,2.965,0,0,0,50,11,3,3,0,0,0,47,8Z"></path><path d="M54.278,41.088,49.54,14.064A3.981,3.981,0,1,0,44.382,8H36a1,1,0,0,0-1,1v4a1,1,0,0,0,1,1h7.505l4.927,28.133A9.941,9.941,0,0,0,45.882,44H18.153A10.008,10.008,0,0,0,1,51a1,1,0,0,0,1,1H5.09a5.987,5.987,0,0,0,11.094,2H22a5.008,5.008,0,0,0,4.9-4H43.074c-.033.332-.074.661-.074,1a1,1,0,0,0,1,1h3.09a5.993,5.993,0,0,0,11.82,0H62a1,1,0,0,0,1-1A9.977,9.977,0,0,0,54.278,41.088ZM53.81,50H51.84L45.668,14.755A3.958,3.958,0,0,0,47,15a4.026,4.026,0,0,0,.663-.067ZM47,9a2,2,0,1,1-2,2A2,2,0,0,1,47,9ZM37,10h6.142a3.592,3.592,0,0,0,0,2H37ZM5.09,50H3.062a8,8,0,0,1,15.356-2H16.187a5.989,5.989,0,0,0-11.1,2ZM11,55a4,4,0,1,1,2.646-7H12a3,3,0,0,0,0,6h1.646A4,4,0,0,1,11,55Zm11-3H12a1,1,0,0,1,0-2H24.829A3.006,3.006,0,0,1,22,52Zm-1.46-4a10.072,10.072,0,0,0-.877-2h24.7a9.914,9.914,0,0,0-.9,2Zm26.554,2H45.062A7.968,7.968,0,0,1,48.8,44.2l.381,2.178A5.969,5.969,0,0,0,47.094,50ZM53,55a3.991,3.991,0,0,1-3.386-6.118l.4,2.291A1,1,0,0,0,51,52h4a1,1,0,0,0,.985-1.173l-.52-2.967A3.993,3.993,0,0,1,53,55Zm5.915-5a5.951,5.951,0,0,0-3.886-4.629l-.386-2.2A7.978,7.978,0,0,1,60.938,50Z"></path></svg>