<svg xmlns="http://www.w3.org/2000/svg" width="64" height="64" id="water"><g fill="none" fill-rule="evenodd"><path fill="#76ABC4" d="M64 32c0 17.673-14.327 32-32 32C14.327 64 0 49.673 0 32 0 14.327 14.327 0 32 0c17.673 0 32 14.327 32 32"></path><path fill="#638DA0" d="M32 54c-8.837 0-16-7.577-16-16.923C16 27.731 25.6 20.154 32 10c6.4 10.154 16 17.731 16 27.077S40.837 54 32 54"></path><path fill="#FFFFFE" d="M48 35.077C48 44.423 40.837 52 32 52s-16-7.577-16-16.923C16 25.731 25.6 18.154 32 8c6.4 10.154 16 17.731 16 27.077"></path></g></svg>