<svg xmlns="http://www.w3.org/2000/svg" width="400" height="400" style="shape-rendering:geometricPrecision;text-rendering:geometricPrecision;image-rendering:optimizeQuality;fill-rule:evenodd;clip-rule:evenodd"><path style="opacity:1" fill="#7a5952" d="M183.5 66.5c.111.617.444 1.117 1 1.5l-9 1 1 1c-2.539.796-4.872.63-7-.5 4.458-1.415 9.125-2.415 14-3z"/><path style="opacity:1" fill="#747eab" d="M197.5 65.5c-1.143 1.6-.476 2.267 2 2 2.476.267 3.143-.4 2-2 3.36.116 6.693.45 10 1-.418.722-1.084 1.222-2 1.5-7 .667-14 .667-21 0-.556-.383-.889-.883-1-1.5 3.307-.55 6.64-.884 10-1z"/><path style="opacity:1" fill="#6827e1" d="M197.5 65.5h4c1.143 1.6.476 2.267-2 2-2.476.267-3.143-.4-2-2z"/><path style="opacity:1" fill="#1dbee4" d="M183.5 66.5h4c.111.617.444 1.117 1 1.5 7 .667 14 .667 21 0 .916-.278 1.582-.778 2-1.5 12.984.858 25.317 3.858 37 9-.111.617-.444 1.117-1 1.5 2.911.33 5.411 1.497 7.5 3.5.717-.544 1.217-1.21 1.5-2l6 3c1.119 3.002 3.286 5.002 6.5 6 .383-.556.883-.89 1.5-1 2.295.975 4.295 2.308 6 4-1.098.897-1.098 1.73 0 2.5a67.212 67.212 0 0 0 9 4.5c.667 0 1 .333 1 1a40.638 40.638 0 0 0 8.5 10 2.428 2.428 0 0 0 .5-2c.838.342 1.172 1.008 1 2a1307.56 1307.56 0 0 1 9.5 14c.953 1.873 2.12 2.206 3.5 1 7.811 10.957 13.478 22.957 17 36-.863-.963-1.53-.963-2 0a95.175 95.175 0 0 0 5 11c2.061 5.696 3.061 11.696 3 18-.617.111-1.117.444-1.5 1a89.115 89.115 0 0 0 .5 22.5 227.77 227.77 0 0 1-2 8.5c.457.798 1.124 1.131 2 1-.909 6.643-2.576 12.976-5 19-.972-1.251-1.639-.918-2 1a157.527 157.527 0 0 1-8 22c-17.045 31.035-42.378 52.368-76 64-1.788-1.122-3.788-1.289-6-.5-1.619.236-2.619 1.069-3 2.5a5.727 5.727 0 0 1-3 1 2.428 2.428 0 0 0-.5-2c-1 1.333-2 1.333-3 0a4.934 4.934 0 0 0-.5 3 589.175 589.175 0 0 0-16 2 2.428 2.428 0 0 0-.5-2 285.14 285.14 0 0 0-9.5 2c-20.005-.085-39.005-4.419-57-13-.437-1.574-1.437-2.741-3-3.5-.937-.692-1.603-.525-2 .5-24-12.667-42.333-31-55-55 1.025-.397 1.192-1.063.5-2-.759-1.563-1.926-2.563-3.5-3-6.483-13.263-10.483-27.263-12-42 1.194-.47 1.86-1.47 2-3-2.57-7.815-2.57-15.649 0-23.5l-.5-3.5c-.278.916-.778 1.582-1.5 2-.033-4.369.3-8.702 1-13 2.442.381 3.109-.286 2-2 1.666-5.321 3.333-10.654 5-16-.02-1.226-.353-2.226-1-3l4-10c1.548-.321 2.215-1.321 2-3 6.639-14.641 15.972-27.307 28-38a2.428 2.428 0 0 0 2-.5c1.238-.69 1.238-1.19 0-1.5 17.141-15.573 37.141-25.906 60-31 2.128 1.13 4.461 1.296 7 .5l-1-1 9-1c-.556-.383-.889-.883-1-1.5z"/><path style="opacity:1" fill="#7e4c78" d="M248.5 75.5a28.932 28.932 0 0 1 8 3c-.283.79-.783 1.456-1.5 2-2.089-2.003-4.589-3.17-7.5-3.5.556-.383.889-.883 1-1.5z"/><path style="opacity:1" fill="#aa788a" d="M262.5 81.5c2.703 1.68 5.369 3.347 8 5-.617.11-1.117.444-1.5 1-3.214-.998-5.381-2.998-6.5-6z"/><path style="opacity:1" fill="#b48f5e" d="M276.5 90.5a46.512 46.512 0 0 1 9 7 67.212 67.212 0 0 1-9-4.5c-1.098-.77-1.098-1.603 0-2.5z"/><path style="opacity:1" fill="#8ecc34" d="M109.5 100.5c1.238.31 1.238.81 0 1.5a2.428 2.428 0 0 1-2 .5c.333-1 1-1.667 2-2z"/><path style="opacity:1" fill="#668344" d="M286.5 98.5a75.568 75.568 0 0 1 9 8 2.428 2.428 0 0 1-.5 2 40.638 40.638 0 0 1-8.5-10z"/><path style="opacity:1" fill="#918084" d="M296.5 108.5a71.61 71.61 0 0 1 13 15c-1.38 1.206-2.547.873-3.5-1a1307.56 1307.56 0 0 0-9.5-14z"/><path style="opacity:1" fill="#83e56f" d="M79.5 140.5c.215 1.679-.452 2.679-2 3 .432-1.21 1.099-2.21 2-3z"/><path style="opacity:1" fill="#857d86" d="M73.5 153.5c.647.774.98 1.774 1 3-1.667 5.346-3.334 10.679-5 16 1.109 1.714.442 2.381-2 2a163.676 163.676 0 0 1 6-21z"/><path style="opacity:1" fill="#7e4c7e" d="M326.5 159.5c1.983 3.299 2.983 6.966 3 11a95.175 95.175 0 0 1-5-11c.47-.963 1.137-.963 2 0z"/><path style="opacity:1" fill="#eaebe2" d="M183.5 166.5a32.462 32.462 0 0 0 .5 8c.699-4.781 1.199-4.947 1.5-.5a23.056 23.056 0 0 1-3 8c.544.717 1.211 1.217 2 1.5-.347 3.502-1.68 7.002-4 10.5 2.89 1.892 2.556 2.725-1 2.5a8.43 8.43 0 0 0 .5 4c.556-2.095 1.056-2.262 1.5-.5a11.493 11.493 0 0 1-4 4c.482 1.008.648 2.175.5 3.5.654-1.196 1.154-1.196 1.5 0a6.802 6.802 0 0 1-3 1.5l2 1a20.667 20.667 0 0 1-5 7l1 1a6.802 6.802 0 0 0-3 1.5c-.595 2.393-1.928 4.227-4 5.5 2.501 1.418 2.168 2.418-1 3l1 1-4 1c1.122 1.613.622 2.78-1.5 3.5-1.268-.116-2.602-.449-4-1-.388.928-1.055 1.595-2 2-1.15-.924-2.15-.924-3 0-.895-3.267-2.728-3.934-5.5-2a8.43 8.43 0 0 0-.5-4c-4.526-.702-5.359-2.702-2.5-6-.346-1.196-.846-1.196-1.5 0-.514-2.528-1.68-4.695-3.5-6.5 2.301-2.003 2.301-3.837 0-5.5.94-2.552-.06-3.386-3-2.5l2 1a136.495 136.495 0 0 0-8.5 17.5c-3.454 4.165-7.454 6.832-12 8-1.563-2.544-3.063-2.544-4.5 0-1.299-.59-2.132-1.59-2.5-3-1.184 2.154-2.35 1.82-3.5-1 .826-.951.992-1.951.5-3-.654 1.196-1.154 1.196-1.5 0 1.235-1.816 1.235-3.483 0-5-.286-1.777-.953-3.444-2-5a89.247 89.247 0 0 0 2-4v-10c-.077-1.25-.744-2.083-2-2.5.916-.278 1.582-.778 2-1.5.95-2.568.95-5.068 0-7.5 2.03-2.294 2.03-4.794 0-7.5 1.543-.613 2.543-2.279 3-5a9.201 9.201 0 0 0-2-4.5 44.048 44.048 0 0 0 4.5-4.5c.873.235 1.707.569 2.5 1 3.485-3.795 7.151-3.962 11-.5-.916.278-1.582.778-2 1.5-.973 1.568-1.14 3.235-.5 5 .278-.916.778-1.582 1.5-2 .202 2.489-.298 4.823-1.5 7-.914-1.154-1.747-.987-2.5.5 2.578 2.157 2.578 3.323 0 3.5 2.165 1.38 2.499 3.047 1 5-.641.982-1.307 1.982-2 3 .457.798 1.124 1.131 2 1a30.786 30.786 0 0 0-3 4.5l2 1c-2.132 1.62-2.465 3.454-1 5.5-.111.617-.444 1.117-1 1.5.57 2.756 1.57 5.256 3 7.5.171 2.493-.829 4.326-3 5.5 1.333.667 2.667.667 4 0l-1-1c2.664-2.009 4.33-4.176 5-6.5.734-1.208 1.067-2.541 1-4 2.521-1.659 3.188-3.825 2-6.5 2.428-1.162 3.095-2.829 2-5 .426-3.534 2.093-6.201 5-8l-1-1a36.354 36.354 0 0 1 2-4.5c.283.789.783 1.456 1.5 2 1.537-2.359 2.037-4.692 1.5-7 2.152-.577 2.485-1.744 1-3.5 1.5-.833 2.667-2 3.5-3.5.377 1.442 1.21 2.442 2.5 3 1.831-.552 3.497-.552 5 0a120.79 120.79 0 0 1 2 13v1c-2.347 1.107-2.68 2.774-1 5-.667 0-1 .333-1 1 .262 4.18.262 8.18 0 12 0 .667.333 1 1 1-1.04 3.264-.373 6.598 2 10 .934 1.068 1.268 2.401 1 4h3c.545 3.672.878 3.338 1-1a4.934 4.934 0 0 0 3-.5c-.752-.671-1.086-1.504-1-2.5.617.111 1.117.444 1.5 1 .366-1.952 1.199-3.618 2.5-5-1.053-3.352-1.053-6.685 0-10l1 2 1-1.5c.233-2.647-.1-4.98-1-7l2-1c-1.658-.725-2.158-1.892-1.5-3.5.811 1.46 1.645 1.793 2.5 1-1.13-1.122-1.797-2.456-2-4 .264-6.68.264-13.347 0-20 .237-2.563.737-2.563 1.5 0 .335-2.003 1.168-3.67 2.5-5 3.56-1.151 7.227-.817 11 1z"/><path style="opacity:1" fill="#e9e7e0" d="M252.5 186.5c-.997-.03-1.664.47-2 1.5-.372 2.727-1.372 5.56-3 8.5a31.147 31.147 0 0 1 2 2 8.43 8.43 0 0 1-.5 4c-1.563 1.225-2.73 2.725-3.5 4.5 1.207 1.3 1.874 2.8 2 4.5-1.679-.215-2.679.452-3 2 .077 1.25.744 2.083 2 2.5-1.658.725-2.158 1.892-1.5 3.5.556-2.095 1.056-2.262 1.5-.5-3.157 4.199-2.157 7.033 3 8.5 1.419-.505 2.085-1.505 2-3a5.576 5.576 0 0 1 3 1c.886-.825 1.219-1.825 1-3 1.322.17 2.489-.163 3.5-1 1.498-3.126 2.998-5.793 4.5-8l-1-2c.346-1.196.846-1.196 1.5 0 .496-1.535.33-3.035-.5-4.5l2-3c-.392-1.011-1.059-1.511-2-1.5a4.457 4.457 0 0 1 2-1.5 4.457 4.457 0 0 1-2-1.5c3.765.205 3.765-.628 0-2.5l2-1-9-1a65.617 65.617 0 0 0 4-7.5 3.647 3.647 0 0 0-1-1.5c2-.667 4-.667 6 0l-4 1c1.973.495 3.973.662 6 .5.17-1.322-.163-2.489-1-3.5 3.541-2.282 3.874-4.949 1-8a40.739 40.739 0 0 1 8-3.5 30.058 30.058 0 0 1 7 3c-.38 4.884-1.046 9.384-2 13.5 3.752.976 4.418.31 2-2 1.319-.195 2.653-.028 4 .5a2.428 2.428 0 0 0 .5 2c2.027-.486 4.193-.486 6.5 0-.215 1.679.452 2.679 2 3-.77 2.435-2.437 3.769-5 4a2.428 2.428 0 0 0-.5-2c-2.695 2.382-5.529 2.382-8.5 0a89.856 89.856 0 0 0-4 7.5c.74 2.272.74 4.272 0 6a9.454 9.454 0 0 0-2.5 1.5c.822 4 .655 8-.5 12-1.025.397-1.192 1.063-.5 2 .759 1.563 1.926 2.563 3.5 3 .235.597.735.93 1.5 1 1.944-.939 3.611-2.273 5-4l1 1 1-3a30.383 30.383 0 0 0 5-3c1.171.84 2.338 1.673 3.5 2.5-1.349.772-2.182 1.939-2.5 3.5-1.666-.84-1.833-.34-.5 1.5l-2 3c-2.677.249-5.01 1.249-7 3 1.211.893 1.211 1.726 0 2.5-2.441-.827-4.607-.827-6.5 0l-1 2a18.191 18.191 0 0 1-8-4c-.914 1.154-1.747.987-2.5-.5.776-1.77.61-3.603-.5-5.5-1.958 1.452-3.958 1.785-6 1-2.168 1.129-2.668 2.629-1.5 4.5a29.749 29.749 0 0 1-9 3.5c.963-.863.963-1.53 0-2-3.16-.074-6.16.259-9 1 .039-1.256-.461-2.256-1.5-3-.741 1.141-1.575 1.141-2.5 0-2.798-6.381-3.631-13.048-2.5-20a9.454 9.454 0 0 1 2.5-1.5c-.482-1.008-.648-2.175-.5-3.5-5.901 1.274-9.235 5.274-10 12-.42-4.964-1.253-5.131-2.5-.5 1.623 1.876 1.29 3.21-1 4l1 1-4.5 5.5c-.317-1.801-.984-2.134-2-1-.617.949-.451 1.782.5 2.5-2.841-1.012-4.174.155-4 3.5-3.098-.573-6.098.093-9 2-.722-.418-1.222-1.084-1.5-2a25.702 25.702 0 0 0-6.5 1 6.846 6.846 0 0 1-4-1c-1.625-2.567-3.791-4.567-6.5-6a29.278 29.278 0 0 1-2.5-7 74.239 74.239 0 0 0 0-11 57.829 57.829 0 0 0 2.5-8l1 2c.273-1.829 1.107-3.329 2.5-4.5a3.647 3.647 0 0 1-1-1.5 32.065 32.065 0 0 0 4-2.5c-2.429-.451-2.596-1.285-.5-2.5l1 1c.29-1.544.956-2.877 2-4l1 2a8.43 8.43 0 0 0 .5-4c2.458-1.123 4.625-1.123 6.5 0 .359-3.044 1.026-3.378 2-1a9.454 9.454 0 0 1 1.5-2.5c3-.667 6-.667 9 0-1.046 1.539-2.379 1.705-4 .5-1.237.056-2.237.556-3 1.5l14 1c.362 3.108 2.196 5.608 5.5 7.5.305 2.057.305 4.057 0 6 1.292 1.291 2.458 1.291 3.5 0 2.324-.377 2.991-1.377 2-3a27.603 27.603 0 0 1 5-1.5c-.785-2.042-.452-4.042 1-6-2.65-3.207-2.484-3.707.5-1.5 1.262-3.504 1.429-7.004.5-10.5 2.165-1.73 2.499-3.73 1-6 .781-5.442 3.948-7.942 9.5-7.5 2.253.131 4.419.631 6.5 1.5a3.647 3.647 0 0 0-1 1.5c2.966 3.67 2.633 6.837-1 9.5l2 1c-2.092.953-2.425 2.286-1 4a39.064 39.064 0 0 0-2 4.5z"/><path style="opacity:1" fill="#4363ba" d="M172.5 165.5c-1.332 1.33-2.165 2.997-2.5 5-.763-2.563-1.263-2.563-1.5 0 .264 6.653.264 13.32 0 20-1.32-7.843-1.32-15.843 0-24a6.846 6.846 0 0 1 4-1z"/><path style="opacity:1" fill="#733eb4" d="M123.5 172.5a2.428 2.428 0 0 1 2 .5c-.752.671-1.086 1.504-1 2.5-.722.418-1.222 1.084-1.5 2-.64-1.765-.473-3.432.5-5z"/><path style="opacity:1" fill="#6a44a1" d="M154.5 188.5a120.79 120.79 0 0 0-2-13c-1.503-.552-3.169-.552-5 0 2.083-2.582 4.417-2.582 7 0 1.311 4.484 1.311 8.817 0 13z"/><path style="opacity:1" fill="#8447a3" d="M183.5 166.5c1.25.077 2.083.744 2.5 2l.5 5c-.201 3.488-.868 6.821-2 10-.789-.283-1.456-.783-2-1.5a23.056 23.056 0 0 0 3-8c-.301-4.447-.801-4.281-1.5.5a32.462 32.462 0 0 1-.5-8z"/><path style="opacity:1" fill="#8e6693" d="M140.5 179.5c.537 2.308.037 4.641-1.5 7-.717-.544-1.217-1.211-1.5-2 .092-2.348 1.092-4.014 3-5z"/><path style="opacity:1" fill="#865eb0" d="M295.5 192.5c-1.548-.321-2.215-1.321-2-3-2.307-.486-4.473-.486-6.5 0a2.428 2.428 0 0 1-.5-2c5.244-2.394 8.244-.727 9 5z"/><path style="opacity:1" fill="#74609e" d="M252.5 186.5c.304.65.637 1.317 1 2l-2 1a3.647 3.647 0 0 0 1 1.5c-2.417 2.274-3.417 4.774-3 7.5a31.147 31.147 0 0 0-2-2c1.628-2.94 2.628-5.773 3-8.5.336-1.03 1.003-1.53 2-1.5z"/><path style="opacity:1" fill="#3932c7" d="M154.5 189.5c.284 1.915-.049 3.581-1 5-1.68-2.226-1.347-3.893 1-5z"/><path style="opacity:1" fill="#36afd7" d="M207.5 190.5c.617.111 1.117.444 1.5 1-.021 3.509.812 6.675 2.5 9.5-.928.388-1.595 1.055-2 2a44.877 44.877 0 0 1 4 8 660.832 660.832 0 0 1-3 5l1 1a38.026 38.026 0 0 0-2.5 6.5 3.647 3.647 0 0 0-1.5-1c-2.511 2.681-5.344 4.015-8.5 4-3.103-4.904-4.103-10.237-3-16 .893 1.211 1.726 1.211 2.5 0 .083-3.5.083-7 0-10.5.561-1.676 1.561-3.009 3-4l-1-1c1.26-1.113 2.427-1.28 3.5-.5.69-1.85 1.856-3.184 3.5-4z"/><path style="opacity:1" fill="#713cad" d="M121.5 191.5c1.333 1.333 1.333 2.667 0 4-.876.131-1.543-.202-2-1a185.977 185.977 0 0 0 2-3z"/><path style="opacity:1" fill="#b25494" d="M152.5 195.5c1.294 1.548 1.961 3.548 2 6-.039 2.452-.706 4.452-2 6 .262-3.82.262-7.82 0-12z"/><path style="opacity:1" fill="#5654b3" d="M281.5 194.5c2.971 2.382 5.805 2.382 8.5 0 .464.594.631 1.261.5 2-2.787.977-5.787 1.31-9 1v-3z"/><path style="opacity:1" fill="#6827e1" d="M333.5 197.5v4c-1.601 1.143-2.267.476-2-2-.267-2.476.399-3.143 2-2z"/><path style="opacity:1" fill="#7b43cd" d="M231.5 197.5c.991 1.623.324 2.623-2 3-1.218-1.832-.551-2.832 2-3z"/><path style="opacity:1" fill="#79849f" d="M332.5 188.5a41.73 41.73 0 0 1 1 9c-1.601-1.143-2.267-.476-2 2-.267 2.476.399 3.143 2 2a371.57 371.57 0 0 1-2 20c-.876.131-1.543-.202-2-1a227.77 227.77 0 0 0 2-8.5 89.115 89.115 0 0 1-.5-22.5c.383-.556.883-.889 1.5-1z"/><path style="opacity:1" fill="#8078b4" d="M66.5 215.5c-1.265-9.474-1.265-18.808 0-28 .722-.418 1.222-1.084 1.5-2l.5 3.5c-2.57 7.851-2.57 15.685 0 23.5-.14 1.53-.806 2.53-2 3z"/><path style="opacity:1" fill="#5959be" d="M106.5 199.5c-.418.722-1.084 1.222-2 1.5 1.256.417 1.923 1.25 2 2.5-1.395-1.554-2.061-1.221-2 1 .168 3.186.335 6.519.5 10 .383-.556.883-.889 1.5-1a89.247 89.247 0 0 1-2 4c1.047 1.556 1.714 3.223 2 5 .065.438-.101.772-.5 1a4.457 4.457 0 0 0-1.5-2 121.862 121.862 0 0 1-1-22h3z"/><path style="opacity:1" fill="#643eb8" d="M121.5 215.5c-1.43-2.244-2.43-4.744-3-7.5.556-.383.889-.883 1-1.5.193-3.949.693-3.949 1.5 0 .498 2.982.665 5.982.5 9z"/><path style="opacity:1" fill="#ad9934" d="M106.5 203.5v10c-.617.111-1.117.444-1.5 1-.165-3.481-.332-6.814-.5-10-.061-2.221.605-2.554 2-1z"/><path style="opacity:1" fill="#8c2495" d="M127.5 209.5c.067 1.459-.266 2.792-1 4-2.953-2.064-2.62-3.397 1-4z"/><path style="opacity:1" fill="#896ebb" d="M153.5 208.5c1.149.291 1.816 1.124 2 2.5-.538 2.734-.538 5.234 0 7.5-2.373-3.402-3.04-6.736-2-10z"/><path style="opacity:1" fill="#4d37b0" d="M181.5 209.5a74.239 74.239 0 0 1 0 11c-1.333-3.667-1.333-7.333 0-11z"/><path style="opacity:1" fill="#a448a3" d="M166.5 214.5c-1.301 1.382-2.134 3.048-2.5 5-.383-.556-.883-.889-1.5-1 .734-1.208 1.067-2.541 1-4h3z"/><path style="opacity:1" fill="#8567a8" d="M251.5 224.5c.085 1.495-.581 2.495-2 3-5.157-1.467-6.157-4.301-3-8.5-.444-1.762-.944-1.595-1.5.5-.658-1.608-.158-2.775 1.5-3.5-1.256-.417-1.923-1.25-2-2.5.65-.304 1.317-.637 2-1 1.291 3.545 1.291 7.045 0 10.5 1.525 1.009 3.192 1.509 5 1.5z"/><path style="opacity:1" fill="#694abf" d="M274.5 221.5c1.074 1.385 2.407 2.551 4 3.5-.556.383-.889.883-1 1.5-1.574-.437-2.741-1.437-3.5-3-.692-.937-.525-1.603.5-2z"/><path style="opacity:1" fill="#8534ad" d="M247.5 235.5c-3.213.31-6.213-.023-9-1 2.84-.741 5.84-1.074 9-1 .963.47.963 1.137 0 2z"/><path style="opacity:1" fill="#604997" d="M202.5 235.5c-2.793 1.246-5.46.913-8-1a25.702 25.702 0 0 1 6.5-1c.278.916.778 1.582 1.5 2z"/><path style="opacity:1" fill="#c4c956" d="M78.5 257.5c1.574.437 2.741 1.437 3.5 3 .692.937.525 1.603-.5 2-1.237-1.465-2.237-3.132-3-5z"/><path style="opacity:1" fill="#a09786" d="M326.5 240.5c-1.991 8.308-5.324 15.975-10 23a157.527 157.527 0 0 0 8-22c.361-1.918 1.028-2.251 2-1z"/><path style="opacity:1" fill="#c1c85b" d="M141.5 320.5c-1.868-.763-3.535-1.763-5-3 .397-1.025 1.063-1.192 2-.5 1.563.759 2.563 1.926 3 3.5z"/><path style="opacity:1" fill="#8b687f" d="M240.5 327.5a87.925 87.925 0 0 1-9 2c.381-1.431 1.381-2.264 3-2.5 2.212-.789 4.212-.622 6 .5z"/><path style="opacity:1" fill="#a94057" d="m228.5 330.5-4 1a4.934 4.934 0 0 1 .5-3c1 1.333 2 1.333 3 0 .464.594.631 1.261.5 2z"/><path style="opacity:1" fill="#8e4cb7" d="M208.5 333.5h-10a285.14 285.14 0 0 1 9.5-2c.464.594.631 1.261.5 2z"/></svg>